<svg width="1024.000000" height="1024.000000" viewBox="0 0 1024 1024" fill="none" xmlns="http://www.w3.org/2000/svg" xmlns:xlink="http://www.w3.org/1999/xlink">
	<rect width="1024.000000" height="1024.000000" fill="#FFFFFF" fill-opacity="0"/>
	<g>
		<rect x="87.000000" y="87.000000" rx="10.000000" width="400.000000" height="400.000000" fill="#B8B3E9" fill-opacity="1.000000"/>
		<rect x="87.000000" y="537.000000" rx="10.000000" width="400.000000" height="400.000000" fill="#B8B3E9" fill-opacity="1.000000"/>
		<rect x="537.000000" y="537.000000" rx="50.000000" width="400.000000" height="400.000000" fill="#B8B3E9" fill-opacity="1.000000"/>
		<rect x="537.000000" y="87.000000" rx="10.000000" width="400.000000" height="400.000000" fill="#B8B3E9" fill-opacity="1.000000"/>
		<circle cx="737.000000" cy="737.000000" r="100.000000" fill="#FFFFFF" fill-opacity="1.000000"/>
		<rect x="712.000000" y="612.000000" width="50.000000" height="50.000000" fill="#FFFFFF" fill-opacity="1.000000"/>
		<rect x="712.000000" y="812.000000" width="50.000000" height="50.000000" fill="#FFFFFF" fill-opacity="1.000000"/>
		<rect x="862.000000" y="712.000000" width="50.000000" height="50.000000" transform="rotate(90 862.000000 712.000000)" fill="#FFFFFF" fill-opacity="1.000000"/>
		<rect x="612.000000" y="762.000000" width="50.000000" height="50.000000" transform="rotate(-90 612.000000 762.000000)" fill="#FFFFFF" fill-opacity="1.000000"/>
		<rect x="630.934021" y="666.289307" width="50.000000" height="50.000000" transform="rotate(-45 630.934021 666.289307)" fill="#FFFFFF" fill-opacity="1.000000"/>
		<rect x="772.355347" y="807.710693" width="50.000000" height="50.000000" transform="rotate(-45 772.355347 807.710693)" fill="#FFFFFF" fill-opacity="1.000000"/>
		<rect x="807.710693" y="630.933960" width="50.000000" height="50.000000" transform="rotate(45 807.710693 630.933960)" fill="#FFFFFF" fill-opacity="1.000000"/>
		<rect x="666.289307" y="843.066040" width="50.000000" height="50.000000" transform="rotate(-135 666.289307 843.066040)" fill="#FFFFFF" fill-opacity="1.000000"/>
	</g>
</svg>
